<mxfile host="Electron" agent="Mozilla/5.0 (Macintosh; Intel Mac OS X 10_15_7) AppleWebKit/537.36 (KHTML, like Gecko) draw.io/26.1.1 Chrome/132.0.6834.210 Electron/34.3.3 Safari/537.36" version="26.1.1">
  <diagram name="Page-1" id="dTUEO4k0oQoPCAeLLIEt">
    <mxGraphModel dx="1114" dy="878" grid="1" gridSize="10" guides="1" tooltips="1" connect="1" arrows="1" fold="1" page="1" pageScale="1" pageWidth="827" pageHeight="1169" math="0" shadow="0">
      <root>
        <mxCell id="0" />
        <mxCell id="1" parent="0" />
        <mxCell id="Reqg0lRLxDFSALjRkqgb-1" value="" style="rounded=1;whiteSpace=wrap;html=1;fillColor=#f5f5f5;fontColor=#333333;strokeColor=#666666;" vertex="1" parent="1">
          <mxGeometry x="270" y="300" width="225" height="210" as="geometry" />
        </mxCell>
        <mxCell id="Reqg0lRLxDFSALjRkqgb-2" value="배송이&lt;div&gt;결제됐다&lt;/div&gt;" style="whiteSpace=wrap;html=1;aspect=fixed;fillColor=#ffe6cc;strokeColor=#d79b00;" vertex="1" parent="1">
          <mxGeometry x="355" y="140" width="60" height="60" as="geometry" />
        </mxCell>
        <mxCell id="Reqg0lRLxDFSALjRkqgb-3" value="이벤트" style="whiteSpace=wrap;html=1;aspect=fixed;fillColor=#ffe6cc;strokeColor=#d79b00;" vertex="1" parent="1">
          <mxGeometry x="290" y="315" width="40" height="40" as="geometry" />
        </mxCell>
        <mxCell id="Reqg0lRLxDFSALjRkqgb-4" value="주문을&lt;div&gt;배송한다&lt;/div&gt;" style="whiteSpace=wrap;html=1;aspect=fixed;fillColor=#dae8fc;strokeColor=#6c8ebf;" vertex="1" parent="1">
          <mxGeometry x="200" y="140" width="60" height="60" as="geometry" />
        </mxCell>
        <mxCell id="Reqg0lRLxDFSALjRkqgb-5" value="" style="whiteSpace=wrap;html=1;aspect=fixed;fillColor=#d80073;strokeColor=#A50040;rotation=45;fontColor=#ffffff;" vertex="1" parent="1">
          <mxGeometry x="360" y="315" width="40" height="40" as="geometry" />
        </mxCell>
        <mxCell id="Reqg0lRLxDFSALjRkqgb-6" value="고충점" style="text;html=1;align=center;verticalAlign=middle;whiteSpace=wrap;rounded=0;fontColor=#FFFFFF;" vertex="1" parent="1">
          <mxGeometry x="350" y="320" width="60" height="30" as="geometry" />
        </mxCell>
        <mxCell id="Reqg0lRLxDFSALjRkqgb-7" value="커맨드" style="whiteSpace=wrap;html=1;aspect=fixed;fillColor=#dae8fc;strokeColor=#6c8ebf;" vertex="1" parent="1">
          <mxGeometry x="430" y="315" width="40" height="40" as="geometry" />
        </mxCell>
        <mxCell id="Reqg0lRLxDFSALjRkqgb-8" value="고객" style="whiteSpace=wrap;html=1;aspect=fixed;fillColor=#fff2cc;strokeColor=#d6b656;" vertex="1" parent="1">
          <mxGeometry x="290" y="380" width="40" height="40" as="geometry" />
        </mxCell>
        <mxCell id="Reqg0lRLxDFSALjRkqgb-9" value="CRM" style="whiteSpace=wrap;html=1;aspect=fixed;fillColor=#f8cecc;strokeColor=#b85450;" vertex="1" parent="1">
          <mxGeometry x="125" y="140" width="60" height="60" as="geometry" />
        </mxCell>
        <mxCell id="Reqg0lRLxDFSALjRkqgb-10" value="정책" style="whiteSpace=wrap;html=1;aspect=fixed;fillColor=#e1d5e7;strokeColor=#9673a6;" vertex="1" parent="1">
          <mxGeometry x="360" y="380" width="40" height="40" as="geometry" />
        </mxCell>
        <mxCell id="Reqg0lRLxDFSALjRkqgb-12" value="CRM" style="whiteSpace=wrap;html=1;aspect=fixed;fillColor=#f8cecc;strokeColor=#b85450;" vertex="1" parent="1">
          <mxGeometry x="435" y="140" width="60" height="60" as="geometry" />
        </mxCell>
        <mxCell id="Reqg0lRLxDFSALjRkqgb-13" value="읽기&lt;div&gt;모델&lt;/div&gt;" style="whiteSpace=wrap;html=1;aspect=fixed;fillColor=#d5e8d4;strokeColor=#82b366;" vertex="1" parent="1">
          <mxGeometry x="430" y="380" width="40" height="40" as="geometry" />
        </mxCell>
        <mxCell id="Reqg0lRLxDFSALjRkqgb-11" value="정책" style="whiteSpace=wrap;html=1;aspect=fixed;fillColor=#e1d5e7;strokeColor=#9673a6;" vertex="1" parent="1">
          <mxGeometry x="399" y="90" width="60" height="60" as="geometry" />
        </mxCell>
        <mxCell id="Reqg0lRLxDFSALjRkqgb-14" value="외부&lt;div&gt;시스템&lt;/div&gt;" style="whiteSpace=wrap;html=1;aspect=fixed;fillColor=#f8cecc;strokeColor=#b85450;" vertex="1" parent="1">
          <mxGeometry x="290" y="440" width="40" height="40" as="geometry" />
        </mxCell>
        <mxCell id="Reqg0lRLxDFSALjRkqgb-15" value="외부 시스템이 커맨드를 실행함" style="text;html=1;align=center;verticalAlign=middle;whiteSpace=wrap;rounded=0;fontStyle=1" vertex="1" parent="1">
          <mxGeometry x="110" y="40" width="160" height="30" as="geometry" />
        </mxCell>
        <mxCell id="Reqg0lRLxDFSALjRkqgb-16" value="외부 시스템에 알림" style="text;html=1;align=center;verticalAlign=middle;whiteSpace=wrap;rounded=0;fontStyle=1" vertex="1" parent="1">
          <mxGeometry x="340" y="40" width="160" height="30" as="geometry" />
        </mxCell>
      </root>
    </mxGraphModel>
  </diagram>
</mxfile>
